<svg id="Layer_1" data-name="Layer 1" xmlns="http://www.w3.org/2000/svg" viewBox="0 0 288.91 81.73"><defs><style>.cls-1{font-size:14px;font-family:Trinos-Solid, Trinos;}.cls-1,.cls-7{fill:#fff;}.cls-2{letter-spacing:0.16em;}.cls-3{letter-spacing:0.16em;}.cls-4{fill:#231f20;letter-spacing:0em;}.cls-5,.cls-6{fill:#f05127;}.cls-5{letter-spacing:-0.01em;}</style></defs><text class="cls-1" transform="translate(0.84 48.26)"><tspan class="cls-2">L</tspan><tspan x="13.48" y="0">ong is</tspan><tspan class="cls-3" x="88.3" y="0">l</tspan><tspan x="101.78" y="0">and</tspan><tspan class="cls-4" x="147.94" y="0"> </tspan><tspan class="cls-5" x="154.38" y="0">r</tspan><tspan class="cls-6" x="170.11" y="0">im</tspan></text><path class="cls-6" d="M248.05,0a40.87,40.87,0,1,0,40.86,40.86A40.91,40.91,0,0,0,248.05,0Zm0,69.89a29,29,0,1,1,29-29A29,29,0,0,1,248.05,69.89Z"/><path class="cls-7" d="M248.05,15.6a25.27,25.27,0,1,0,25.26,25.26A25.29,25.29,0,0,0,248.05,15.6Zm22,23.65H257.82a9.8,9.8,0,0,0-1.75-4.2l8.66-8.65A22,22,0,0,1,270.08,39.25ZM249.63,18.83a22,22,0,0,1,12.85,5.33l-8.65,8.65a9.86,9.86,0,0,0-4.2-1.74V18.83Zm-3.17,0V31.07a9.86,9.86,0,0,0-4.2,1.74l-8.65-8.65A22,22,0,0,1,246.46,18.83Zm-15.1,7.57L240,35.05a9.91,9.91,0,0,0-1.74,4.2H226A22,22,0,0,1,231.36,26.4Zm-5.35,16h12.27a9.86,9.86,0,0,0,1.74,4.2l-8.68,8.68A22,22,0,0,1,226,42.42ZM246.46,62.9a22,22,0,0,1-12.88-5.35l8.68-8.68a9.86,9.86,0,0,0,4.2,1.74Zm0-15.55v0a6.54,6.54,0,0,1-1.91-.79l0,0a6.7,6.7,0,0,1-2.25-2.24v0a6.78,6.78,0,0,1-.8-1.92h0a6.33,6.33,0,0,1-.2-1.58,6.41,6.41,0,0,1,.2-1.59h0a6.85,6.85,0,0,1,.8-1.91v0a6.61,6.61,0,0,1,2.25-2.24l0,0a6.54,6.54,0,0,1,1.91-.79v0a6.38,6.38,0,0,1,3.17,0v0a6.32,6.32,0,0,1,1.91.79v0a6.67,6.67,0,0,1,2.24,2.24l0,0a7.13,7.13,0,0,1,.79,1.91h0a6.92,6.92,0,0,1,.19,1.59,6.77,6.77,0,0,1-.19,1.58h0a7.06,7.06,0,0,1-.79,1.92l0,0a6.76,6.76,0,0,1-2.24,2.24v0a6.32,6.32,0,0,1-1.91.79v0a6.38,6.38,0,0,1-3.17,0Zm3.17,15.55V50.61a9.86,9.86,0,0,0,4.2-1.74l8.68,8.68A22,22,0,0,1,249.63,62.9Zm15.12-7.6-8.68-8.68a9.75,9.75,0,0,0,1.75-4.2h12.26A21.91,21.91,0,0,1,264.75,55.3Z"/></svg>