<svg version="1.1" id="Layer_1" xmlns="http://www.w3.org/2000/svg" xmlns:xlink="http://www.w3.org/1999/xlink" x="0px" y="0px"
	 viewBox="0 0 24 24" style="enable-background:new 0 0 24 24;" xml:space="preserve">
<style type="text/css">
	.st0{fill:#FFFFFF;}
</style>
<path class="st0" d="M12,0C5.4,0,0,5.4,0,12s5.4,12,12,12s12-5.4,12-12S18.6,0,12,0z M16.3,11.8c0.4,0.1,0.6,0.3,0.6,0.6
	c0,0.3-0.3,0.7-0.8,0.7c-0.3,0-0.4,0.3,0,0.4c0.4,0.1,0.5,0.3,0.5,0.6c0,0.3-0.3,0.7-0.9,0.8c-0.4,0.1-0.4,0.4,0,0.5
	c0.3,0,0.5,0.1,0.5,0.3c0,0.5-0.8,1.3-2.4,1.3c-2.5,0-3.4-1.5-6.8-1.5v-5c1.8-0.3,3.5-0.8,4.3-3.8C11.6,5.9,11.7,5,12.5,5
	c1.2,0,1.3,2.6,0.8,4.4c0.7,0.3,1.9,0.5,2.5,0.4c0.9,0,1.1,0.4,1.1,0.7c0,0.5-0.4,0.7-0.7,0.8C16,11.4,15.9,11.7,16.3,11.8z"/>
</svg>
