<svg version="1.1" id="Layer_1" xmlns="http://www.w3.org/2000/svg" xmlns:xlink="http://www.w3.org/1999/xlink" x="0px" y="0px"
	 viewBox="0 0 24 24" style="enable-background:new 0 0 24 24;" xml:space="preserve">
<style type="text/css">
	.st0{fill:#FFFFFF;}
</style>
<path class="st0" d="M18.5,7.1c1-1.1,1.5-2.6,1.5-4V0H4v3.1c0,1.5,0.5,2.9,1.5,4l3.1,3.7c0.6,0.7,0.6,1.6,0,2.3l-3.1,3.8
	C4.5,18,4,19.5,4,20.9V24h16v-3.1c0-1.4-0.5-2.9-1.5-4l-3.1-3.8c-0.6-0.7-0.6-1.6,0-2.3C15.4,10.8,18.5,7.1,18.5,7.1z M13.9,14.4
	l3.1,3.8c0.7,0.8,1,1.7,1,2.8H6c0-1.1,0.3-2,1-2.8l3.1-3.8c1.2-1.4,1.2-3.5,0-4.9L7,5.8C6.4,5,6,4.1,6,3h12c0,1.1-0.4,2-1,2.8
	l-3.1,3.7C12.7,10.9,12.7,13,13.9,14.4z"/>
</svg>
